<svg width="190" height="23" viewBox="0 0 190 23" fill="none" xmlns="http://www.w3.org/2000/svg">
<path d="M37.91 11.8999V13.5199H29.846V11.8999H37.91ZM34.706 8.82186L34.688 16.5979H33.068V8.82186H34.706ZM47.3594 5.68986C47.6354 5.68986 47.8634 5.74986 48.0434 5.86986C48.2234 5.97786 48.3374 6.12786 48.3854 6.31986C48.4454 6.51186 48.4334 6.73986 48.3494 7.00386L44.5154 18.1099H42.3014L45.6134 8.60586C45.6734 8.42586 45.7394 8.24586 45.8114 8.06586C45.8834 7.88586 45.9734 7.71186 46.0814 7.54386H40.1594L40.0694 5.68986H47.3594ZM60.0897 3.88986L60.3597 4.87986C59.2317 5.39586 58.4217 6.29586 57.9297 7.57986C57.4377 8.86386 57.1917 10.4959 57.1917 12.4759C57.1917 13.7719 57.2997 14.9239 57.5157 15.9319C57.7317 16.9399 58.0677 17.7919 58.5237 18.4879C58.9917 19.1839 59.6037 19.7179 60.3597 20.0899L60.0897 21.0799C58.3617 20.4799 57.0957 19.4899 56.2917 18.1099C55.4877 16.7179 55.0857 14.8459 55.0857 12.4939C55.0857 10.1299 55.4877 8.25186 56.2917 6.85986C57.0957 5.46786 58.3617 4.47786 60.0897 3.88986ZM69.3827 5.68986C69.6587 5.68986 69.8867 5.74986 70.0667 5.86986C70.2467 5.97786 70.3607 6.12786 70.4087 6.31986C70.4687 6.51186 70.4567 6.73986 70.3727 7.00386L66.5387 18.1099H64.3247L67.6367 8.60586C67.6967 8.42586 67.7627 8.24586 67.8347 8.06586C67.9067 7.88586 67.9967 7.71186 68.1047 7.54386H62.1827L62.0927 5.68986H69.3827ZM79.4894 5.68986C79.7654 5.68986 79.9934 5.74986 80.1734 5.86986C80.3534 5.97786 80.4674 6.12786 80.5154 6.31986C80.5754 6.51186 80.5634 6.73986 80.4794 7.00386L76.6454 18.1099H74.4314L77.7434 8.60586C77.8034 8.42586 77.8694 8.24586 77.9414 8.06586C78.0134 7.88586 78.1034 7.71186 78.2114 7.54386H72.2894L72.1994 5.68986H79.4894ZM89.5962 5.68986C89.8722 5.68986 90.1002 5.74986 90.2802 5.86986C90.4602 5.97786 90.5742 6.12786 90.6222 6.31986C90.6822 6.51186 90.6702 6.73986 90.5862 7.00386L86.7522 18.1099H84.5382L87.8502 8.60586C87.9102 8.42586 87.9762 8.24586 88.0482 8.06586C88.1202 7.88586 88.2102 7.71186 88.3182 7.54386H82.3962L82.3062 5.68986H89.5962ZM92.5389 3.88986C94.2669 4.47786 95.5329 5.46786 96.3369 6.85986C97.1529 8.25186 97.5609 10.1299 97.5609 12.4939C97.5609 14.8459 97.1529 16.7179 96.3369 18.1099C95.5329 19.4899 94.2669 20.4799 92.5389 21.0799L92.2689 20.0899C93.0249 19.7179 93.6309 19.1839 94.0869 18.4879C94.5549 17.7919 94.8909 16.9399 95.0949 15.9319C95.3109 14.9239 95.4189 13.7719 95.4189 12.4759C95.4189 10.4959 95.1729 8.86386 94.6809 7.57986C94.2009 6.29586 93.3969 5.39586 92.2689 4.87986L92.5389 3.88986ZM111.619 5.68986C111.895 5.68986 112.123 5.74986 112.303 5.86986C112.483 5.97786 112.597 6.12786 112.645 6.31986C112.705 6.51186 112.693 6.73986 112.609 7.00386L108.775 18.1099H106.561L109.873 8.60586C109.933 8.42586 109.999 8.24586 110.071 8.06586C110.143 7.88586 110.233 7.71186 110.341 7.54386H104.419L104.329 5.68986H111.619ZM121.726 5.68986C122.002 5.68986 122.23 5.74986 122.41 5.86986C122.59 5.97786 122.704 6.12786 122.752 6.31986C122.812 6.51186 122.8 6.73986 122.716 7.00386L118.882 18.1099H116.668L119.98 8.60586C120.04 8.42586 120.106 8.24586 120.178 8.06586C120.25 7.88586 120.34 7.71186 120.448 7.54386H114.526L114.436 5.68986H121.726ZM131.833 5.68986C132.109 5.68986 132.337 5.74986 132.517 5.86986C132.697 5.97786 132.811 6.12786 132.859 6.31986C132.919 6.51186 132.907 6.73986 132.823 7.00386L128.989 18.1099H126.775L130.087 8.60586C130.147 8.42586 130.213 8.24586 130.285 8.06586C130.357 7.88586 130.447 7.71186 130.555 7.54386H124.633L124.543 5.68986H131.833ZM140.274 12.7999V14.2759H134.856V12.7999H140.274ZM149.269 5.68986C149.545 5.68986 149.773 5.74986 149.953 5.86986C150.133 5.97786 150.247 6.12786 150.295 6.31986C150.355 6.51186 150.343 6.73986 150.259 7.00386L146.425 18.1099H144.211L147.523 8.60586C147.583 8.42586 147.649 8.24586 147.721 8.06586C147.793 7.88586 147.883 7.71186 147.991 7.54386H142.069L141.979 5.68986H149.269ZM159.376 5.68986C159.652 5.68986 159.88 5.74986 160.06 5.86986C160.24 5.97786 160.354 6.12786 160.402 6.31986C160.462 6.51186 160.45 6.73986 160.366 7.00386L156.532 18.1099H154.318L157.63 8.60586C157.69 8.42586 157.756 8.24586 157.828 8.06586C157.9 7.88586 157.99 7.71186 158.098 7.54386H152.176L152.086 5.68986H159.376ZM167.817 12.7999V14.2759H162.399V12.7999H167.817ZM176.812 5.68986C177.088 5.68986 177.316 5.74986 177.496 5.86986C177.676 5.97786 177.79 6.12786 177.838 6.31986C177.898 6.51186 177.886 6.73986 177.802 7.00386L173.968 18.1099H171.754L175.066 8.60586C175.126 8.42586 175.192 8.24586 175.264 8.06586C175.336 7.88586 175.426 7.71186 175.534 7.54386H169.612L169.522 5.68986H176.812ZM186.919 5.68986C187.195 5.68986 187.423 5.74986 187.603 5.86986C187.783 5.97786 187.897 6.12786 187.945 6.31986C188.005 6.51186 187.993 6.73986 187.909 7.00386L184.075 18.1099H181.861L185.173 8.60586C185.233 8.42586 185.299 8.24586 185.371 8.06586C185.443 7.88586 185.533 7.71186 185.641 7.54386H179.719L179.629 5.68986H186.919Z" fill="#151515"/>
<path d="M7.04354 21.7731H6.69956C5.69449 21.7796 4.70984 21.4894 3.86906 20.9387C3.02829 20.3879 2.3688 19.6012 1.97329 18.6772C0.98556 16.2775 0.487354 13.7047 0.507937 11.1097C0.489442 8.51429 0.989994 5.94136 1.98017 3.54217C2.37523 2.61925 3.03365 1.83332 3.87308 1.28267C4.7125 0.732028 5.69566 0.441127 6.69956 0.446358H7.04354C7.68214 0.446358 8.29459 0.700042 8.74615 1.1516C9.19771 1.60316 9.45139 2.21561 9.45139 2.85421V6.294C9.45139 6.9326 9.19771 7.54505 8.74615 7.99661C8.29459 8.44817 7.68214 8.70186 7.04354 8.70186H2.72316C2.51959 10.3006 2.51959 11.9188 2.72316 13.5176H7.04354C7.68214 13.5176 8.29459 13.7712 8.74615 14.2228C9.19771 14.6744 9.45139 15.2868 9.45139 15.9254V19.3652C9.45139 20.0038 9.19771 20.6163 8.74615 21.0678C8.29459 21.5194 7.68214 21.7731 7.04354 21.7731ZM3.1153 15.5814C3.31095 16.3646 3.56624 17.1316 3.87893 17.8758C4.11725 18.4245 4.51179 18.8909 5.01336 19.2169C5.51493 19.5429 6.10136 19.7141 6.69956 19.7092H7.04354C7.13477 19.7092 7.22226 19.6729 7.28677 19.6084C7.35128 19.5439 7.38752 19.4564 7.38752 19.3652V15.9254C7.38752 15.8342 7.35128 15.7467 7.28677 15.6822C7.22226 15.6177 7.13477 15.5814 7.04354 15.5814H3.1153ZM3.1153 6.63798H7.04354C7.13477 6.63798 7.22226 6.60174 7.28677 6.53723C7.35128 6.47272 7.38752 6.38523 7.38752 6.294V2.85421C7.38752 2.76298 7.35128 2.67549 7.28677 2.61098C7.22226 2.54647 7.13477 2.51023 7.04354 2.51023H6.69956C6.1001 2.50347 5.51198 2.67385 5.00898 3.00001C4.50597 3.32617 4.11046 3.79359 3.87205 4.34364C3.5617 5.08802 3.30871 5.85503 3.1153 6.63798Z" fill="#28468C"/>
<path d="M14.0919 15.4884L12.6334 14.0299L13.3627 13.3007C13.6502 13.0132 13.8784 12.6719 14.034 12.2962C14.1896 11.9205 14.2698 11.5179 14.2698 11.1113C14.2698 10.7046 14.1896 10.302 14.034 9.92631C13.8784 9.55065 13.6502 9.20932 13.3627 8.92184L12.6334 8.1926L14.0919 6.73413L14.8211 7.46337C15.7884 8.43095 16.3318 9.7431 16.3318 11.1113C16.3318 12.4794 15.7884 13.7916 14.8211 14.7592L14.0919 15.4884Z" fill="#28468C"/>
<path d="M17.9819 19.365L16.5234 17.9203L17.2527 17.191C18.0514 16.3925 18.6851 15.4444 19.1174 14.4009C19.5497 13.3574 19.7722 12.239 19.7722 11.1095C19.7722 9.98001 19.5497 8.86158 19.1174 7.8181C18.6851 6.77462 18.0514 5.82652 17.2527 5.02795L16.5234 4.29872L17.9819 2.854L18.7111 3.58324C20.7108 5.583 21.8343 8.29522 21.8343 11.1233C21.8343 13.9513 20.7108 16.6635 18.7111 18.6633L17.9819 19.365Z" fill="#28468C"/>
</svg>
